<?xml version="1.0" encoding="utf-8"?>
<svg version="1.1" xmlns="http://www.w3.org/2000/svg" xmlns:xlink="http://www.w3.org/1999/xlink" width="360" height="244.8" viewBox="0 0 705 475" class="cartogram active">
<g data-postal="AK">
	<rect class="ak" width="24" height="24" x="4" y="4"></rect>
	<text>AK</text>
</g>
<g data-postal="AL">
	<rect class="al" width="42" height="42" x="385" y="338"></rect>
	<text>AL</text>
</g>
<g data-postal="AR">
	<rect class="ar" width="34" height="34" x="306" y="304"></rect>
	<text>AR</text>
</g>
	<g data-postal="AZ">
	<rect class="az" width="46" height="46" x="139" y="292"></rect>
	<text>AZ</text>
</g>
	<g data-postal="CA">
	<rect class="ca" width="103" height="103" x="4" y="216"></rect>
	<text>CA</text>
</g>
	<g data-postal="CO">
	<rect class="co" width="44" height="44" x="190" y="243"></rect>
	<text>CO</text>
</g>
<g data-postal="CT">
	<rect class="ct" width="37" height="37" x="624" y="122"></rect>
	<text>CT</text>
</g>
<g data-postal="DC">
	<rect class="dc" width="24" height="24" x="540" y="207"></rect>
	<text>DC</text>
</g>
<g data-postal="DE">
	<rect class="de" width="24" height="24" x="569" y="207"></rect>
	<text>DE</text>
</g>
<g data-postal="FL">
	<rect class="fl" width="77" height="77" x="454" y="399"></rect>
	<text>FL</text>
</g>
<g data-postal="GA">
	<rect class="ga" width="56" height="56" x="432.13" y="338"></rect>
	<text>GA</text>
</g>
	<g data-postal="HI">
	<rect class="hi" width="28" height="28" x="4" y="384"></rect>
	<text>HI</text>
</g>
<g data-postal="IA">
	<rect class="ia" width="34" height="34" x="231" y="168"></rect>
	<text>IA</text>
</g>
<g data-postal="ID">
	<rect class="id" width="28" height="28" x="122" y="183"></rect>
	<text>ID</text>
</g>
<g data-postal="IL">
	<rect class="il" width="61" height="61" x="270" y="181"></rect>
	<text>IL</text>
</g>
<g data-postal="IN">
	<rect class="in" width="46" height="46" x="336" y="179"></rect>
	<text>IN</text>
</g>
<g data-postal="KS">
	<rect class="ks" width="34" height="34" x="254" y="247"></rect>
	<text>KS</text>
</g>
<g data-postal="KY">
	<rect class="ky" width="40" height="40" x="371" y="242"></rect>
	<text>KY</text>
</g>
<g data-postal="LA">
	<rect class="la" width="40" height="40" x="301" y="344"></rect>
	<text>LA</text>
</g>
<g data-postal="MA">
	<rect class="ma" width="46" height="46" x="624" y="71"></rect>
	<text>MA</text>
</g>
<g data-postal="MD">
	<rect class="md" width="44" height="44" x="518" y="158"></rect>
	<text>MD</text>
</g>
<g data-postal="ME">
	<g data-postal="ME-1">
		<rect class="me" width="14" height="14" x="688" y="4"></rect>
	</g>
	<g data-postal="ME-2">
		<rect class="me" width="14" height="14" x="672" y="4"></rect>
	</g>
	<g data-postal="ME-AL">
		<rect class="me" width="14" height="14" x="672" y="20"></rect>
	</g>
	<g data-postal="ME-AL">
		<rect class="me" width="14" height="14" x="688" y="20"></rect>
	</g>
	<text>ME</text>
</g>
<g data-postal="MI">
	<rect class="mi" width="54" height="54" x="358" y="119"></rect>
	<text>MI</text>
</g>
<g data-postal="MN">
	<rect class="mn" width="44" height="44" x="221" y="119"></rect>
	<text>MN</text>
</g>
	<g data-postal="MO">
	<rect class="mo" width="44" height="44" x="306" y="251"></rect>
	<text>MO</text>
</g>
	<g data-postal="MS">
	<rect class="ms" width="34" height="34" x="346" y="338"></rect>
	<text>MS</text>
</g>
	<g data-postal="MT">
	<rect class="mt" width="28" height="28" x="134" y="118"></rect>
	<text>MT</text>
</g>
	<g data-postal="NC">
	<rect class="nc" width="56" height="56" x="494" y="262"></rect>
	<text>NC</text>
</g>
	<g data-postal="ND">
	<rect class="nd" width="24" height="24" x="183" y="119"></rect>
	<text>ND</text>
</g>
<g data-postal="NE">
	<g data-postal="NE-1">
		<rect class="ne" width="14" height="14" x="205" y="206"></rect>
	</g>
	<g data-postal="NE-2">
		<rect class="ne" width="14" height="14" x="221" y="206"></rect>
	</g>
	<g data-postal="NE-3">
		<rect class="ne" width="14" height="14" x="237" y="206"></rect>
	</g>
	<g data-postal="NE-AL">
		<rect class="ne" width="14" height="14" x="221" y="222"></rect>
	</g>
	<g data-postal="NE-AL">
		<rect class="ne" width="14" height="14" x="237" y="222"></rect>
	</g>
	<text>NE</text>
</g>
<g data-postal="NH">
	<rect class="nh" width="28" height="28" x="653" y="38"></rect>
	<text>NH</text>
</g>
<g data-postal="NJ">
	<rect class="nj" width="52" height="52" x="568" y="149"></rect>
	<text>NJ</text>
</g>
	<g data-postal="NM">
	<rect class="nm" width="31" height="31" x="190" y="292"></rect>
	<text>NM</text>
</g>
<g data-postal="NV">
	<rect class="nv" width="34" height="34" x="112" y="253"></rect>
	<text>NV</text>
</g>
<g data-postal="NY">
	<rect class="ny" width="74" height="74" x="546" y="71"></rect>
	<text>NY</text>
</g>
<g data-postal="OH">
	<rect class="oh" width="58" height="58" x="387" y="179"></rect>
	<text>OH</text>
</g>
<g data-postal="OK">
	<rect class="ok" width="37" height="37" x="250" y="286"></rect>
	<text>OK</text>
</g>
<g data-postal="OR">
	<rect class="or" width="40" height="40" x="67" y="171"></rect>
	<text>OR</text>
</g>
	<g data-postal="PA">
	<rect class="pa" width="61" height="61" x="451" y="140"></rect>
	<text>PA</text>
</g>
<g data-postal="RI">
	<rect class="ri" width="28" height="28" x="666" y="122"></rect>
	<text>RI</text>
</g>
<g data-postal="SC">
	<rect class="sc" width="42" height="42" x="447" y="291"></rect>
	<text>SC</text>
</g>
<g data-postal="SD">
	<rect class="sd" width="24" height="24" x="183" y="149"></rect>
	<text>SD</text>
</g>
<g data-postal="TN">
	<rect class="tn" width="46" height="46" x="375" y="287"></rect>
	<text>TN</text>
</g>
<g data-postal="TX">
	<rect class="tx" width="89" height="89" x="207" y="328"></rect>
	<text>TX</text>
</g>
<g data-postal="UT">
	<rect class="ut" width="34" height="34" x="151" y="253"></rect>
	<text>UT</text>
</g>
	<g data-postal="VA">
	<rect class="va" width="50" height="50" x="485" y="207"></rect>
	<text>VA</text>
</g>
<g data-postal="VT">
	<rect class="vt" width="24" height="24" x="624" y="42"></rect>
	<text>VT</text>
</g>
<g data-postal="WA">
	<rect class="wa" width="48" height="48" x="59" y="118"></rect>
	<text>WA</text>
</g>
<g data-postal="WI">
	<rect class="wi" width="44" height="44" x="270" y="132"></rect>
	<text>WI</text>
</g>
<g data-postal="WV">
	<rect class="wv" width="28" height="28" x="451" y="207"></rect>
	<text>WV</text>
</g>
<g data-postal="WY">
	<rect class="wy" width="24" height="24" x="162" y="185"></rect>
	<text>WY</text>
</g>
</svg>